<svg xmlns="http://www.w3.org/2000/svg" viewBox="0 0 441 441"><title>ut-dot-darks</title><rect width="1" height="1"/><rect x="40" width="1" height="1"/><rect x="80" width="1" height="1"/><rect x="120" width="1" height="1"/><rect x="160" width="1" height="1"/><rect x="200" width="1" height="1"/><rect x="240" width="1" height="1"/><rect x="280" width="1" height="1"/><rect x="320" width="1" height="1"/><rect x="360" width="1" height="1"/><rect x="400" width="1" height="1"/><rect x="440" width="1" height="1"/><rect y="40" width="1" height="1"/><rect x="40" y="40" width="1" height="1"/><rect x="80" y="40" width="1" height="1"/><rect x="120" y="40" width="1" height="1"/><rect x="160" y="40" width="1" height="1"/><rect x="200" y="40" width="1" height="1"/><rect x="240" y="40" width="1" height="1"/><rect x="280" y="40" width="1" height="1"/><rect x="320" y="40" width="1" height="1"/><rect x="360" y="40" width="1" height="1"/><rect x="400" y="40" width="1" height="1"/><rect x="440" y="40" width="1" height="1"/><rect y="80" width="1" height="1"/><rect x="40" y="80" width="1" height="1"/><rect x="80" y="80" width="1" height="1"/><rect x="120" y="80" width="1" height="1"/><rect x="160" y="80" width="1" height="1"/><rect x="200" y="80" width="1" height="1"/><rect x="240" y="80" width="1" height="1"/><rect x="280" y="80" width="1" height="1"/><rect x="320" y="80" width="1" height="1"/><rect x="360" y="80" width="1" height="1"/><rect x="400" y="80" width="1" height="1"/><rect x="440" y="80" width="1" height="1"/><rect y="120" width="1" height="1"/><rect x="40" y="120" width="1" height="1"/><rect x="80" y="120" width="1" height="1"/><rect x="120" y="120" width="1" height="1"/><rect x="160" y="120" width="1" height="1"/><rect x="200" y="120" width="1" height="1"/><rect x="240" y="120" width="1" height="1"/><rect x="280" y="120" width="1" height="1"/><rect x="320" y="120" width="1" height="1"/><rect x="360" y="120" width="1" height="1"/><rect x="400" y="120" width="1" height="1"/><rect x="440" y="120" width="1" height="1"/><rect y="160" width="1" height="1"/><rect x="40" y="160" width="1" height="1"/><rect x="80" y="160" width="1" height="1"/><rect x="120" y="160" width="1" height="1"/><rect x="160" y="160" width="1" height="1"/><rect x="200" y="160" width="1" height="1"/><rect x="240" y="160" width="1" height="1"/><rect x="280" y="160" width="1" height="1"/><rect x="320" y="160" width="1" height="1"/><rect x="360" y="160" width="1" height="1"/><rect x="400" y="160" width="1" height="1"/><rect x="440" y="160" width="1" height="1"/><rect y="200" width="1" height="1"/><rect x="40" y="200" width="1" height="1"/><rect x="80" y="200" width="1" height="1"/><rect x="120" y="200" width="1" height="1"/><rect x="160" y="200" width="1" height="1"/><rect x="200" y="200" width="1" height="1"/><rect x="240" y="200" width="1" height="1"/><rect x="280" y="200" width="1" height="1"/><rect x="320" y="200" width="1" height="1"/><rect x="360" y="200" width="1" height="1"/><rect x="400" y="200" width="1" height="1"/><rect x="440" y="200" width="1" height="1"/><rect y="240" width="1" height="1"/><rect x="40" y="240" width="1" height="1"/><rect x="80" y="240" width="1" height="1"/><rect x="120" y="240" width="1" height="1"/><rect x="160" y="240" width="1" height="1"/><rect x="200" y="240" width="1" height="1"/><rect x="240" y="240" width="1" height="1"/><rect x="280" y="240" width="1" height="1"/><rect x="320" y="240" width="1" height="1"/><rect x="360" y="240" width="1" height="1"/><rect x="400" y="240" width="1" height="1"/><rect x="440" y="240" width="1" height="1"/><rect y="280" width="1" height="1"/><rect x="40" y="280" width="1" height="1"/><rect x="80" y="280" width="1" height="1"/><rect x="120" y="280" width="1" height="1"/><rect x="160" y="280" width="1" height="1"/><rect x="200" y="280" width="1" height="1"/><rect x="240" y="280" width="1" height="1"/><rect x="280" y="280" width="1" height="1"/><rect x="320" y="280" width="1" height="1"/><rect x="360" y="280" width="1" height="1"/><rect x="400" y="280" width="1" height="1"/><rect x="440" y="280" width="1" height="1"/><rect y="320" width="1" height="1"/><rect x="40" y="320" width="1" height="1"/><rect x="80" y="320" width="1" height="1"/><rect x="120" y="320" width="1" height="1"/><rect x="160" y="320" width="1" height="1"/><rect x="200" y="320" width="1" height="1"/><rect x="240" y="320" width="1" height="1"/><rect x="280" y="320" width="1" height="1"/><rect x="320" y="320" width="1" height="1"/><rect x="360" y="320" width="1" height="1"/><rect x="400" y="320" width="1" height="1"/><rect x="440" y="320" width="1" height="1"/><rect y="360" width="1" height="1"/><rect x="40" y="360" width="1" height="1"/><rect x="80" y="360" width="1" height="1"/><rect x="120" y="360" width="1" height="1"/><rect x="160" y="360" width="1" height="1"/><rect x="200" y="360" width="1" height="1"/><rect x="240" y="360" width="1" height="1"/><rect x="280" y="360" width="1" height="1"/><rect x="320" y="360" width="1" height="1"/><rect x="360" y="360" width="1" height="1"/><rect x="400" y="360" width="1" height="1"/><rect x="440" y="360" width="1" height="1"/><rect y="400" width="1" height="1"/><rect x="40" y="400" width="1" height="1"/><rect x="80" y="400" width="1" height="1"/><rect x="120" y="400" width="1" height="1"/><rect x="160" y="400" width="1" height="1"/><rect x="200" y="400" width="1" height="1"/><rect x="240" y="400" width="1" height="1"/><rect x="280" y="400" width="1" height="1"/><rect x="320" y="400" width="1" height="1"/><rect x="360" y="400" width="1" height="1"/><rect x="400" y="400" width="1" height="1"/><rect x="440" y="400" width="1" height="1"/><rect y="440" width="1" height="1"/><rect x="40" y="440" width="1" height="1"/><rect x="80" y="440" width="1" height="1"/><rect x="120" y="440" width="1" height="1"/><rect x="160" y="440" width="1" height="1"/><rect x="200" y="440" width="1" height="1"/><rect x="240" y="440" width="1" height="1"/><rect x="280" y="440" width="1" height="1"/><rect x="320" y="440" width="1" height="1"/><rect x="360" y="440" width="1" height="1"/><rect x="400" y="440" width="1" height="1"/><rect x="440" y="440" width="1" height="1"/></svg>